# xmcd
#
# Track frame offsets:
#	150
#	14220
#	26910
#	43906
#	56596
#	69317
#	85613
#	100086
#	114032
#	134691
#	151550
#	166310
#	182897
#	203019
#	218042
#	232554
#
# Disc length: 3383 seconds
#
# Revision: 4
# Processed by: cddbd v1.5.2PL0 Copyright (c) Steve Scherf et al.
# Submitted via: EZCDAudioConverter 2.1.4.1
#
DISCID=cb0d3510
DTITLE=Irah Caldeira - Entre o calango e o baião
DYEAR=2006
DGENRE=Forró
TTITLE0=Quero ter você
TTITLE1=Aperta o nó
TTITLE2=Oceano do querer
TTITLE3=Me perguntaram, eu respondo
TTITLE4=Faça isso não
TTITLE5=Porteira da saudade
TTITLE6=Sem chance
TTITLE7=Segura o forró
TTITLE8=Avoante
TTITLE9=Ainda é tempo
TTITLE10=Nordestinês
TTITLE11=Machado Cortador
TTITLE12=Sabiá alcoviteiro
TTITLE13=Queimei seu travesseiro
TTITLE14=Chama
TTITLE15=Grãos de sonhos
EXTD=
EXTT0=
EXTT1=
EXTT2=
EXTT3=
EXTT4=
EXTT5=
EXTT6=
EXTT7=
EXTT8=
EXTT9=
EXTT10=
EXTT11=
EXTT12=
EXTT13=
EXTT14=
EXTT15=
PLAYORDER=
